HIERARCHY
ROOT Hips
{
	OFFSET 0.000000 89.005402 0.000000
	CHANNELS 6 Xposition Yposition Zposition Xrotation Yrotation Zrotation
	JOINT Spine
	{
		OFFSET 0.116900 10.681000 0.373400
		CHANNELS 3 Xrotation Yrotation Zrotation
		JOINT Spine1
		{
			OFFSET 0.000000 13.840401 0.053500
			CHANNELS 3 Xrotation Yrotation Zrotation
			JOINT Spine2
			{
				OFFSET 0.000000 14.712700 -0.366200
				CHANNELS 3 Xrotation Yrotation Zrotation
				JOINT Neck
				{
					OFFSET 0.000000 35.415497 -3.314200
					CHANNELS 3 Xrotation Yrotation Zrotation
					JOINT Head
					{
						OFFSET 0.000000 16.899200 1.218300
						CHANNELS 3 Xrotation Yrotation Zrotation
						JOINT HeadTop_End
						{
							OFFSET 0.000000 22.206207 2.192500
							CHANNELS 3 Xrotation Yrotation Zrotation
							End Site
							{
								OFFSET 0.000000 22.314178 0.000000
							}
						}
					}
				}
				JOINT LeftShoulder
				{
					OFFSET 12.896400 26.716293 -4.548400
					CHANNELS 3 Xrotation Yrotation Zrotation
					JOINT LeftArm
					{
						OFFSET 19.027000 -4.857010 -1.718400
						CHANNELS 3 Xrotation Yrotation Zrotation
						JOINT LeftForeArm
						{
							OFFSET 24.179897 0.000000 0.000000
							CHANNELS 3 Xrotation Yrotation Zrotation
							JOINT LeftHand
							{
								OFFSET 27.156403 0.000000 0.000000
								CHANNELS 3 Xrotation Yrotation Zrotation
								JOINT LeftHandIndex1
								{
									OFFSET 16.441200 0.000000 0.000000
									CHANNELS 3 Xrotation Yrotation Zrotation
									JOINT LeftHandIndex2
									{
										OFFSET 4.821899 0.000000 0.000000
										CHANNELS 3 Xrotation Yrotation Zrotation
										JOINT LeftHandIndex3
										{
											OFFSET 6.386497 0.000000 0.000000
											CHANNELS 3 Xrotation Yrotation Zrotation
											JOINT LeftHandIndex4
											{
												OFFSET 5.188988 0.000000 0.000000
												CHANNELS 3 Xrotation Yrotation Zrotation
												End Site
												{
													OFFSET -0.178703 5.185913 0.000177
												}
											}
										}
									}
								}
								JOINT LeftHandThumb1
								{
									OFFSET 6.534897 -5.032593 5.900300
									CHANNELS 3 Xrotation Yrotation Zrotation
									JOINT LeftHandThumb2
									{
										OFFSET 3.818176 -2.204422 2.204423
										CHANNELS 3 Xrotation Yrotation Zrotation
										JOINT LeftHandThumb3
										{
											OFFSET 3.252098 -1.877594 1.877601
											CHANNELS 3 Xrotation Yrotation Zrotation
											JOINT LeftHandThumb4
											{
												OFFSET 5.251778 -3.032120 3.032117
												CHANNELS 3 Xrotation Yrotation Zrotation
												End Site
												{
													OFFSET 0.000023 6.780014 0.000000
												}
											}
										}
									}
								}
							}
						}
					}
				}
				JOINT RightShoulder
				{
					OFFSET -12.896300 26.716293 -4.548400
					CHANNELS 3 Xrotation Yrotation Zrotation
					JOINT RightArm
					{
						OFFSET -19.027000 -4.857010 -1.718400
						CHANNELS 3 Xrotation Yrotation Zrotation
						JOINT RightForeArm
						{
							OFFSET -24.179897 0.000000 0.000000
							CHANNELS 3 Xrotation Yrotation Zrotation
							JOINT RightHand
							{
								OFFSET -27.156403 0.000000 0.000000
								CHANNELS 3 Xrotation Yrotation Zrotation
								JOINT RightHandThumb1
								{
									OFFSET -6.591202 -4.852203 5.988100
									CHANNELS 3 Xrotation Yrotation Zrotation
									JOINT RightHandThumb2
									{
										OFFSET -3.818176 -2.204422 2.204423
										CHANNELS 3 Xrotation Yrotation Zrotation
										JOINT RightHandThumb3
										{
											OFFSET -3.252098 -1.877594 1.877601
											CHANNELS 3 Xrotation Yrotation Zrotation
											JOINT RightHandThumb4
											{
												OFFSET -5.251778 -3.032120 3.032117
												CHANNELS 3 Xrotation Yrotation Zrotation
												End Site
												{
													OFFSET -0.000023 6.780014 0.000000
												}
											}
										}
									}
								}
								JOINT RightHandIndex1
								{
									OFFSET -16.029404 0.000000 0.000000
									CHANNELS 3 Xrotation Yrotation Zrotation
									JOINT RightHandIndex2
									{
										OFFSET -5.213303 0.000000 0.000000
										CHANNELS 3 Xrotation Yrotation Zrotation
										JOINT RightHandIndex3
										{
											OFFSET -6.386528 0.000000 0.000000
											CHANNELS 3 Xrotation Yrotation Zrotation
											JOINT RightHandIndex4
											{
												OFFSET -5.189026 0.000000 0.000000
												CHANNELS 3 Xrotation Yrotation Zrotation
												End Site
												{
													OFFSET 0.236702 5.183624 0.001972
												}
											}
										}
									}
								}
							}
						}
					}
				}
			}
		}
	}
	JOINT LeftUpLeg
	{
		OFFSET 14.073000 -7.904099 -1.463000
		CHANNELS 3 Xrotation Yrotation Zrotation
		JOINT LeftLeg
		{
			OFFSET -0.109806 -34.073280 4.093200
			CHANNELS 3 Xrotation Yrotation Zrotation
			JOINT LeftFoot
			{
				OFFSET 0.109806 -29.899420 -6.319000
				CHANNELS 3 Xrotation Yrotation Zrotation
				JOINT LeftToeBase
				{
					OFFSET 1.551100 -14.988700 20.535801
					CHANNELS 3 Xrotation Yrotation Zrotation
					JOINT LeftToe_End
					{
						OFFSET 0.221200 0.570800 13.248301
						CHANNELS 3 Xrotation Yrotation Zrotation
						End Site
						{
							OFFSET 0.000000 13.262435 0.000000
						}
					}
				}
			}
		}
	}
	JOINT RightUpLeg
	{
		OFFSET -13.839300 -7.904099 -1.463000
		CHANNELS 3 Xrotation Yrotation Zrotation
		JOINT RightLeg
		{
			OFFSET 0.109694 -34.073219 4.093300
			CHANNELS 3 Xrotation Yrotation Zrotation
			JOINT RightFoot
			{
				OFFSET -0.109694 -29.899384 -6.319200
				CHANNELS 3 Xrotation Yrotation Zrotation
				JOINT RightToeBase
				{
					OFFSET -1.551100 -14.988700 20.535801
					CHANNELS 3 Xrotation Yrotation Zrotation
					JOINT RightToe_End
					{
						OFFSET -0.221200 0.570900 13.248299
						CHANNELS 3 Xrotation Yrotation Zrotation
						End Site
						{
							OFFSET 0.000000 13.262440 0.000000
						}
					}
				}
			}
		}
	}
}
MOTION
Frames: 4
Frame Time: 0.033333
-6.935452 82.037079 13.836990 -4.026642 -6.102991 7.673080 -1.674952 6.672002 6.568248 -3.368788 13.493472 8.921493 -3.349838 13.493554 8.925369 3.643295 -7.590904 2.016145 0.294801 -34.860616 -4.202339 0.000001 0.000002 -0.000000 -11.541331 -1.100749 20.635969 -32.243042 -16.189217 -72.137808 0.000055 -79.121198 0.000051 -78.339203 26.938720 33.208680 10.995921 7.302600 -101.439968 5.030042 5.793371 -81.919855 3.071003 5.150449 -61.590090 0.000001 0.000001 -0.000001 -13.843450 -12.111980 8.122523 4.980027 -3.795295 7.128347 -19.033010 -10.893244 6.825930 -0.000005 -0.000001 0.000000 -0.000722 41.933055 0.052708 -71.856636 19.721357 74.640273 -0.000002 39.238419 0.000001 -35.821655 -1.971149 -1.316462 4.481192 -6.177875 -11.982688 3.096689 -32.940384 2.712916 1.754457 20.485093 -16.378307 -0.000001 -0.000002 -0.000001 2.677012 -10.251709 19.954184 4.577468 -4.656497 89.018436 1.301380 -3.231057 43.867112 0.000002 0.000001 0.000001 -20.144642 -5.460729 -17.274441 28.343670 -11.739310 -4.240790 0.703586 -31.313405 10.325738 1.009748 -10.729628 -4.353914 -0.000000 -0.000001 0.000001 7.059509 -22.409029 -17.541719 43.881025 -18.761690 -2.601415 -16.192131 -22.423214 11.725255 -31.534830 0.000010 0.000004 -0.000000 0.000000 0.000001 
-7.005597 82.030197 13.786673 -3.841284 -5.823184 7.585587 -1.644789 6.649639 6.467207 -3.301860 13.409266 8.738724 -3.282784 13.409042 8.743153 3.476829 -7.514374 1.908881 0.044201 -34.534273 -4.357850 0.000000 -0.000001 -0.000001 -11.816670 0.282947 20.060168 -33.307585 -16.956716 -73.783084 0.000377 -81.118830 0.000372 -75.413587 26.490257 38.010242 10.995915 7.302597 -101.439955 5.030039 5.793374 -81.919841 3.071030 5.150460 -61.590131 -0.000001 -0.000001 0.000002 -13.843447 -12.111978 8.122527 4.980022 -3.795244 7.128347 -19.033003 -10.893251 6.825925 -0.000002 -0.000001 0.000001 0.253560 40.910736 -0.384229 -72.803369 18.123338 76.060939 -0.000020 39.897027 0.000010 -36.194880 -1.408592 3.154011 4.456347 -6.259063 -12.023996 3.123256 -32.946107 2.738227 1.774558 20.472831 -16.411522 -0.000002 0.000002 -0.000002 2.662054 -10.310570 19.664366 4.586213 -4.656649 89.126093 1.301366 -3.231069 43.867122 0.000001 -0.000000 -0.000000 -20.376131 -5.329859 -17.050661 28.494337 -11.758427 -4.183977 0.547941 -31.331543 10.299529 0.866305 -12.572674 -4.775134 -0.000000 -0.000002 -0.000000 7.000345 -22.451609 -17.069864 43.774799 -18.805090 -2.723899 -16.100540 -22.870345 11.668720 -31.782854 0.000000 -0.000002 -0.000001 0.000000 -0.000002 
-7.062066 82.033379 13.721651 -3.741935 -5.561675 7.568799 -1.598286 6.608328 6.377063 -3.201738 13.303794 8.575323 -3.182818 13.303515 8.579755 3.354680 -7.429881 1.823373 -0.305507 -34.099194 -4.738278 -0.000000 0.000000 -0.000002 -12.068429 1.668243 19.582591 -34.977327 -18.297491 -75.731881 0.000565 -81.815831 0.000559 -72.737840 26.078084 41.820009 10.995923 7.302620 -101.439955 5.030049 5.793349 -81.919827 3.071008 5.150450 -61.590138 0.000001 0.000000 -0.000002 -13.843442 -12.111975 8.122543 4.980002 -3.795372 7.128322 -19.033024 -10.893254 6.825922 0.000003 0.000001 0.000000 0.275660 40.025786 -0.404041 -73.697721 16.001292 77.283317 -0.000029 40.171098 0.000036 -35.813144 -1.302133 7.456360 4.260340 -6.302729 -12.243978 3.150617 -32.907667 2.785808 1.777796 20.422629 -16.508431 -0.000000 0.000000 -0.000001 2.653035 -10.381860 19.390905 4.576185 -4.656477 89.002692 1.301361 -3.231070 43.867105 0.000000 0.000003 -0.000002 -20.517542 -5.289700 -16.930900 28.492728 -11.768177 -4.172800 0.517491 -31.327431 10.253728 0.733397 -13.898805 -5.107709 -0.000000 -0.000001 0.000000 7.038964 -22.418511 -16.749741 43.690780 -18.860920 -2.790919 -16.061478 -23.117289 11.718119 -31.989693 0.000011 -0.000002 0.000002 0.000001 0.000003 
-7.101318 82.050049 13.638848 -3.616341 -5.416746 7.544553 -1.560207 6.571723 6.313269 -3.120952 13.208274 8.472635 -3.102265 13.208218 8.476606 3.296287 -7.320810 1.735145 -0.661862 -33.540385 -5.177639 0.000000 0.000000 -0.000003 -12.295372 2.989468 19.160598 -36.795448 -19.866935 -77.660610 -0.000113 -81.619388 -0.000110 -70.698065 25.731382 44.469548 10.995919 7.302610 -101.439955 5.030054 5.793355 -81.919834 3.070990 5.150430 -61.590111 -0.000000 -0.000000 0.000001 -13.843479 -12.111992 8.122512 4.980008 -3.795315 7.128329 -19.033007 -10.893238 6.825946 0.000001 0.000000 -0.000000 0.268681 40.017662 -0.389341 -73.734768 13.062762 77.559742 -0.000014 41.338859 0.000005 -34.705267 -2.102438 10.749180 4.234197 -6.321685 -12.270040 3.183022 -32.940015 2.832711 1.735636 20.524585 -16.573218 -0.000000 0.000002 0.000001 2.640586 -10.447473 19.112440 4.587025 -4.656654 89.136209 1.301358 -3.231079 43.867102 0.000002 0.000002 0.000002 -20.664561 -5.223780 -16.793946 28.428537 -11.770485 -4.181356 0.538530 -31.315202 10.198064 0.622540 -14.977471 -5.336877 -0.000000 -0.000002 0.000000 7.029192 -22.272289 -16.493078 43.609733 -19.078574 -2.754485 -16.150894 -23.112769 11.613242 -32.160280 -0.000009 -0.000013 0.000001 0.000002 0.000000 
